# xmcd
#
# Track frame offsets:
#	150
#	14642
#	34447
#	55142
#	68737
#	81322
#	102725
#	120430
#	141360
#	155332
#	171920
#	188045
#
# Disc length: 2826 seconds
#
# Revision: 1
# Processed by: cddbd v1.5.2PL0 Copyright (c) Steve Scherf et al.
# Submitted via: EasyCDDAExtractor 12.1.0.1
#
DISCID=aa0b080c
DTITLE=Kashtin
DYEAR=1989
DGENRE=Ethnic
TTITLE0=E Uassiuian (Mon enfance)
TTITLE1=Kashtin (Tornade)
TTITLE2=E Peikussian (Solitude)
TTITLE3=Pakuakumit (Pointe-Bleue)
TTITLE4=Shashish (Il y a longtemps)
TTITLE5=Apu Tshekuan (Sans importance)
TTITLE6=Tshinanu (Nous autres)
TTITLE7=Tipatshimun (La chanson du diable)
TTITLE8=Uitshi (Aide-moi)
TTITLE9=Ashtam Nituapam (Viens me trouver)
TTITLE10=Shteteian (Départ)
TTITLE11=Nitanish (N'Teish) (Ma fille)
EXTD=
EXTT0=
EXTT1=
EXTT2=
EXTT3=
EXTT4=
EXTT5=
EXTT6=
EXTT7=
EXTT8=
EXTT9=
EXTT10=
EXTT11=
PLAYORDER=
